<?xml version="1.0" encoding="UTF-8" standalone="no"?>
<!-- Created with Inkscape (http://www.inkscape.org/) -->

<svg
   xmlns:dc="http://purl.org/dc/elements/1.1/"
   xmlns:cc="http://creativecommons.org/ns#"
   xmlns:rdf="http://www.w3.org/1999/02/22-rdf-syntax-ns#"
   xmlns:svg="http://www.w3.org/2000/svg"
   xmlns="http://www.w3.org/2000/svg"
   xmlns:sodipodi="http://sodipodi.sourceforge.net/DTD/sodipodi-0.dtd"
   xmlns:inkscape="http://www.inkscape.org/namespaces/inkscape"
   width="210mm"
   height="297mm"
   viewBox="0 0 210 297"
   version="1.1"
   id="svg8"
   inkscape:version="0.92.2 5c3e80d, 2017-08-06"
   sodipodi:docname="ogfbImage.svg">
  <defs
     id="defs2" />
  <sodipodi:namedview
     id="base"
     pagecolor="#ffffff"
     bordercolor="#666666"
     borderopacity="1.0"
     inkscape:pageopacity="0.0"
     inkscape:pageshadow="2"
     inkscape:zoom="0.49497475"
     inkscape:cx="30.954545"
     inkscape:cy="425.99124"
     inkscape:document-units="mm"
     inkscape:current-layer="layer1"
     showgrid="false"
     inkscape:window-width="1920"
     inkscape:window-height="1035"
     inkscape:window-x="299"
     inkscape:window-y="260"
     inkscape:window-maximized="0" />
  <metadata
     id="metadata5">
    <rdf:RDF>
      <cc:Work
         rdf:about="">
        <dc:format>image/svg+xml</dc:format>
        <dc:type
           rdf:resource="http://purl.org/dc/dcmitype/StillImage" />
        <dc:title></dc:title>
      </cc:Work>
    </rdf:RDF>
  </metadata>
  <g
     inkscape:label="Layer 1"
     inkscape:groupmode="layer"
     id="layer1">
    <g
       id="g158"
       transform="translate(-31.006865,43.294055)"
       style="image-rendering:auto">
      <path
         style="fill:#00cbf4;stroke-width:0.35277775"
         d="M 98.356979,88.529774 V 53.251999 h 35.277771 35.27778 V 88.529774 123.80755 H 133.63475 98.356979 Z"
         id="path174"
         inkscape:connector-curvature="0" />
      <path
         style="fill:#00b1d5;stroke-width:0.35277775"
         d="M 98.356979,88.529774 V 53.251999 h 35.277771 35.27778 V 88.529774 123.80755 H 133.63475 98.356979 Z m 6.135881,15.488876 c 1.81219,-1.42547 2.36571,-3.20234 3.44194,-11.049087 0.72046,-5.252904 1.18161,-7.57743 1.59353,-8.032596 0.55415,-0.612333 0.48299,-0.640526 -1.61687,-0.640526 -2.01253,0 -2.14931,0.04724 -1.6327,0.563845 0.37388,0.373876 0.50531,0.938446 0.39011,1.675694 -0.4282,2.7403 -0.93346,6.385189 -1.45003,10.46046 -0.64431,5.08297 -1.07138,6.70278 -1.76722,6.70278 -0.2723,0 -0.5947,-0.39688 -0.71644,-0.88195 -0.12175,-0.48507 -0.36683,-0.88194 -0.54462,-0.88194 -0.46077,0 -1.03036,1.65667 -0.78733,2.28999 0.29506,0.76892 1.99383,0.65528 3.08963,-0.20667 z m 44.8405,-5.616151 1.05834,-0.705961 -1.114,0.216708 c -0.92186,0.179331 -1.18861,0.0773 -1.54657,-0.591563 -0.6073,-1.134755 -0.18886,-5.93685 0.69056,-7.924929 0.78256,-1.7691 0.32873,-2.150844 -0.92584,-0.778786 -2.47413,2.705809 -3.11665,8.275958 -1.13943,9.877777 0.98466,0.797705 1.67363,0.776122 2.97694,-0.09325 z M 135.0584,97.14358 c 0.89798,-2.094889 0.87741,-2.39589 -0.0583,-0.852695 -0.90593,1.494154 -1.26719,1.751485 -2.46873,1.758487 -1.69972,0.0099 -1.783,-0.498076 -1.01744,-6.206253 0.38753,-2.889493 0.70574,-5.45206 0.70713,-5.694595 0.001,-0.242535 0.32003,-0.758472 0.70809,-1.146528 l 0.70555,-0.705555 h -2.12907 c -2.0186,0 -2.10952,0.03655 -1.7521,0.704402 0.27433,0.512595 0.22589,1.86223 -0.17791,4.956453 -0.80637,6.178987 -1.09592,7.477848 -1.77825,7.976778 -0.51121,0.373807 -0.0414,0.465667 2.87777,0.562666 1.9188,0.06376 3.53406,0.149148 3.58946,0.189756 0.0554,0.04061 0.41259,-0.653704 0.79375,-1.542916 z m 4.57358,0.734804 c 0.4557,-0.485069 0.97683,-0.881944 1.15807,-0.881944 0.18124,0 0.22992,0.396875 0.10817,0.881944 -0.2504,0.997673 -0.0913,1.045344 1.59153,0.476794 1.5361,-0.518982 1.5557,-0.540216 1.05535,-1.14311 -0.32759,-0.394719 -0.28709,-1.451613 0.1829,-4.773033 0.33202,-2.346329 0.5269,-4.342816 0.43308,-4.43664 -0.0938,-0.09383 -0.82276,0.08559 -1.61986,0.398698 -1.22734,0.482115 -1.39177,0.661347 -1.07381,1.170483 0.6112,0.978683 0.0146,5.809078 -0.85382,6.913107 -0.61822,0.785939 -0.79576,0.848801 -1.21454,0.430029 -0.41877,-0.418775 -0.40413,-1.094165 0.10016,-4.620344 0.32485,-2.27143 0.51578,-4.204729 0.42429,-4.296218 -0.0915,-0.09149 -0.8291,0.09399 -1.63913,0.412181 -1.19245,0.468407 -1.39523,0.671971 -1.06534,1.069459 0.30849,0.371705 0.29882,1.465474 -0.0398,4.503706 -0.24599,2.207023 -0.34101,4.184685 -0.21115,4.394803 0.41518,0.671766 1.80889,0.41022 2.66392,-0.499915 z m 15.13525,0.393976 c 0.31229,-0.376291 0.28181,-0.535231 -0.1332,-0.694482 -0.68345,-0.262269 -0.69359,-1.81609 -0.0242,-3.713268 l 0.51393,-1.456648 -1.07089,0.55378 c -1.6839,0.870783 -2.73412,4.291446 -1.65031,5.375253 0.57107,0.571066 1.8665,0.535658 2.3647,-0.06463 z m 3.28004,0.09727 c 0.56373,-0.301696 0.62323,-0.456696 0.26123,-0.680431 -0.38932,-0.240605 -0.39048,-1.01819 -0.007,-4.585821 0.45012,-4.186481 0.4433,-4.314684 -0.26706,-5.025052 -0.66024,-0.660242 -0.86344,-0.688676 -2.15538,-0.301603 -1.41209,0.423072 -2.03924,1.175099 -2.66306,3.193344 l -0.2636,0.852798 1.01265,-0.792042 c 0.55696,-0.435624 1.09359,-1.216258 1.19251,-1.734743 0.12319,-0.645713 0.40104,-0.942696 0.88194,-0.942696 0.61452,0 0.68728,0.198011 0.58332,1.5875 -0.0653,0.873125 -0.2357,1.631061 -0.37861,1.684306 -0.14291,0.05324 -0.19534,0.536222 -0.11652,1.073287 0.0788,0.537065 -0.01,1.818552 -0.1968,2.847749 -0.18706,1.029197 -0.2611,2.173407 -0.16453,2.542685 0.19635,0.750841 1.17688,0.871523 2.28081,0.280719 z m 5.29465,-0.698179 c 0.97312,-1.29934 1.20093,-3.532304 0.49741,-4.875784 -0.31418,-0.59999 -0.81808,-1.561302 -1.11977,-2.136245 -0.42641,-0.812617 -0.46038,-1.210056 -0.15259,-1.785172 0.59074,-1.103809 1.54578,-0.723184 1.8012,0.71786 l 0.21815,1.230718 0.0464,-1.461561 c 0.0494,-1.555413 -0.29173,-1.889827 -1.92788,-1.889827 -0.58973,0 -1.077,0.358735 -1.55733,1.146527 -0.98389,1.613694 -0.91417,3.92799 0.18026,5.98387 0.97386,1.829399 1.09776,2.743224 0.45861,3.38238 -0.64677,0.646772 -0.93743,0.522919 -1.6972,-0.723195 l -0.69905,-1.146527 -0.001,1.249087 -0.001,1.249087 1.63549,-0.01436 c 1.33856,-0.01175 1.75957,-0.180033 2.31889,-0.926853 z m -46.6311,0.0481 c -0.26371,-0.492746 -0.21431,-1.669119 0.17408,-4.145139 0.77467,-4.938543 0.85639,-6.170768 0.38455,-5.798417 -0.2154,0.169979 -0.99732,0.504224 -1.73759,0.742766 -1.24659,0.401698 -1.30516,0.47879 -0.79337,1.044314 0.49521,0.547204 0.5004,0.955626 0.05,3.933786 -0.61269,4.051201 -0.79765,4.557913 -1.66365,4.557913 -1.06326,0 -1.13779,-0.778263 -0.53155,-5.550686 0.31151,-2.452268 0.51832,-4.506731 0.45957,-4.565475 -0.0587,-0.05874 -0.76956,0.15353 -1.57959,0.471719 -1.16561,0.457866 -1.39077,0.67734 -1.07958,1.0523 0.76758,0.924885 -0.29537,7.741606 -1.32452,8.494137 -0.51269,0.374893 0.10965,0.450783 3.69669,0.450783 4.16717,0 4.30071,-0.02328 3.94497,-0.688001 z m 4.47963,-2.578735 c 0.0436,-1.79281 0.21055,-3.723756 0.37094,-4.290995 0.36334,-1.284922 1.2941,-1.951531 1.89118,-1.354451 0.55402,0.554016 -0.19708,6.960693 -0.95093,8.111214 l -0.52482,0.800968 2.03661,-0.02787 c 1.12013,-0.01531 1.83816,-0.107922 1.59563,-0.205786 -0.55069,-0.222208 -0.55786,-1.807118 -0.0262,-5.800079 0.61503,-4.619339 -0.19211,-5.934686 -2.46707,-4.020432 -1.29402,1.088845 -1.34703,1.088845 -1.62032,0 -0.27215,-1.08433 -1.00057,-1.119161 -2.41042,-0.115259 -1.04373,0.7432 -1.0535,0.775271 -0.31904,1.046966 0.41671,0.154154 0.75654,0.563206 0.75517,0.90901 -0.007,1.649634 -1.03469,7.233725 -1.4166,7.693899 -0.36975,0.44552 -0.18626,0.519046 1.2877,0.516008 l 1.71889,-0.0035 0.0793,-3.259648 z m 30.73082,-5.714717 c 0.12928,-1.132778 -0.63454,-1.954657 -1.81658,-1.954657 -0.49934,0 -0.58644,0.117789 -0.32609,0.440972 0.19538,0.242535 0.4675,0.965747 0.6047,1.607139 0.31845,1.488613 1.36466,1.425039 1.53797,-0.09345 z m -38.83946,-3.101185 c 0.60088,-0.762884 0.82948,-2.367677 0.44074,-3.094044 -0.47198,-0.8819 -0.87253,-0.880253 -1.76002,0.0072 -0.68305,0.683049 -0.98265,2.780305 -0.47037,3.292592 0.38574,0.385734 1.41715,0.267134 1.78965,-0.205787 z"
         id="path172"
         inkscape:connector-curvature="0" />
      <path
         style="fill:#038fac;stroke-width:0.35277775"
         d="M 98.356979,88.529774 V 53.251999 h 35.277771 35.27778 V 88.529774 123.80755 H 133.63475 98.356979 Z m 5.985941,15.704446 c 1.76485,-0.91264 2.72113,-3.53867 3.53493,-9.707224 1.09703,-8.315419 1.28207,-9.2607 1.90144,-9.713598 0.31467,-0.230093 0.57211,-0.480224 0.57209,-0.555848 -2e-5,-0.07562 -1.0319,-0.14905 -2.29306,-0.163168 -1.26115,-0.01412 -2.29301,0.02772 -2.29301,0.09298 0,0.06526 0.18492,0.414758 0.41094,0.776665 0.32147,0.514765 0.19896,2.299305 -0.56277,8.197296 -1.03559,8.018517 -1.41913,10.024237 -1.98355,10.373067 -0.19377,0.11976 -0.52528,-0.27843 -0.73669,-0.88487 -0.36718,-1.05329 -0.41411,-1.0757 -1.04921,-0.50095 -0.65318,0.59112 -0.89213,1.91131 -0.42964,2.37379 0.40301,0.40302 1.87134,0.25855 2.92853,-0.28814 z m 35.06344,-5.992425 1.28395,-0.871315 v 0.849901 0.849898 l 1.58709,-0.540773 c 1.50587,-0.513104 2.41524,-1.180288 1.60873,-1.180288 -0.51286,0 -0.45813,-2.360052 0.14693,-6.335568 0.27933,-1.835326 0.45976,-3.385064 0.40097,-3.443862 -0.18757,-0.18757 -3.39094,1.334784 -3.39094,1.611492 0,0.146146 0.17623,0.44195 0.39163,0.657345 0.28689,0.28689 0.28706,1.16858 7e-4,3.296818 -0.39646,2.94556 -0.79247,3.860997 -1.67025,3.860997 -0.62142,0 -0.61556,-1.281419 0.0266,-5.81486 0.27438,-1.936994 0.45458,-3.566106 0.40043,-3.620251 -0.18181,-0.181808 -3.38249,1.351075 -3.38249,1.619951 0,0.146146 0.17966,0.445375 0.39925,0.664962 0.29714,0.297141 0.29714,1.08574 0,3.083577 -0.51327,3.450953 -0.50583,5.23004 0.0241,5.759954 0.57627,0.576266 0.70222,0.550305 2.17327,-0.447978 z m 9.74927,0.51925 c 0.36181,-0.193633 1.01344,-0.86832 1.44807,-1.499306 l 0.79024,-1.147243 -1.13132,1.048434 c -1.36836,1.268112 -2.16768,0.97404 -2.66353,-0.979914 -0.38823,-1.529878 0.53359,-6.780135 1.33032,-7.576862 0.6483,-0.648303 1.2859,-0.273533 1.2859,0.75583 0,1.087003 0.6864,1.739522 1.29688,1.232866 0.58263,-0.483538 0.60934,-2.134415 0.0437,-2.700076 -0.52286,-0.522863 -2.09188,-0.54809 -3.1825,-0.05117 -2.31576,1.055132 -4.12684,6.577307 -3.08105,9.394452 0.64342,1.733261 2.27132,2.375006 3.86332,1.522988 z m 8.8699,-0.346326 c 0.66443,-0.557173 0.73552,-0.762585 0.35156,-1.015865 -0.39568,-0.261017 -0.41136,-0.836895 -0.0882,-3.23826 0.50744,-3.770563 0.49794,-5.737623 -0.0303,-6.26582 -0.59596,-0.59596 -2.44772,-0.526261 -3.38074,0.127248 -0.86847,0.608304 -1.84037,2.274989 -1.84037,3.156012 0,0.507312 0.11079,0.501181 1.05833,-0.05854 0.63748,-0.376569 1.05834,-0.917582 1.05834,-1.360502 0,-0.738335 0.60202,-1.581993 1.12889,-1.581993 0.15522,0 0.28222,0.709496 0.28222,1.576659 0,1.523235 -0.065,1.618231 -1.91784,2.803486 -2.31465,1.480665 -2.73857,2.192352 -2.59892,4.363113 0.0985,1.530996 0.18611,1.672752 1.09851,1.777372 0.54531,0.06253 1.224,-0.0793 1.5082,-0.315165 0.45163,-0.374815 0.44399,-0.509238 -0.0606,-1.066803 -0.4995,-0.551942 -0.52068,-0.874113 -0.1571,-2.389695 0.23113,-0.963461 0.7414,-2.042393 1.13393,-2.39763 0.71101,-0.643452 0.71271,-0.637931 0.45373,1.470142 -0.14298,1.16381 -0.3946,2.476055 -0.55916,2.916096 -0.22507,0.60181 -0.12594,0.973352 0.40002,1.499305 0.87174,0.871739 1.12079,0.871834 2.15945,7.06e-4 z m 4.63038,0.391601 c 0.14837,-0.02529 0.58434,-0.561929 0.96882,-1.192519 0.98976,-1.623331 0.92,-3.9612 -0.17105,-5.732638 -1.00624,-1.633721 -1.15519,-3.272212 -0.32638,-3.590256 0.66744,-0.256119 1.17197,0.42078 1.22983,1.649978 0.0336,0.715342 0.0962,0.649333 0.33097,-0.349412 0.36279,-1.54331 -0.0763,-2.120032 -1.61399,-2.120032 -1.44054,0 -2.46659,1.174101 -2.81183,3.217566 -0.20336,1.203674 -0.0582,1.79524 0.9075,3.697774 0.99807,1.966355 1.0952,2.384234 0.73694,3.17053 -0.52087,1.143183 -1.12478,0.955622 -1.85999,-0.577674 l -0.57553,-1.200266 -0.13003,1.588456 -0.13003,1.588452 1.5875,-0.05199 c 0.87313,-0.02857 1.70889,-0.07268 1.85727,-0.09797 z m -45.81905,-1.457289 c -0.47126,-2.947095 0.96913,-8.562826 2.02838,-7.908173 0.73172,0.452229 -0.053,7.293031 -0.9503,8.284573 -0.27938,0.308708 -0.50796,0.628293 -0.50796,0.710187 0,0.111464 3.2165,0.101787 4.18833,-0.01259 0.0723,-0.0085 -0.0697,-0.257796 -0.31554,-0.553981 -0.6841,-0.824297 0.23186,-7.83446 1.0832,-8.290083 0.42826,-0.2292 0.74024,-0.177126 1.0299,0.171894 0.32022,0.385833 0.29298,1.326247 -0.1187,4.099443 -0.29383,1.979313 -0.70228,3.766788 -0.90766,3.972172 -0.64984,0.649838 -0.41996,0.761478 1.56797,0.761478 2.01095,0 2.21899,-0.108229 1.53083,-0.796392 -0.30926,-0.309263 -0.30916,-1.118119 4.6e-4,-3.33375 0.22483,-1.608977 0.40858,-3.647726 0.40833,-4.530552 -7e-4,-2.560614 -1.15469,-3.167885 -2.87957,-1.51535 l -0.97745,0.936456 -0.35604,-0.936456 c -0.46728,-1.229058 -1.62174,-1.224502 -2.91183,0.01149 l -0.98945,0.947939 v -0.913851 -0.913852 l -1.6622,0.630957 c -1.56963,0.595821 -2.4354,1.417521 -1.49354,1.417521 0.32299,0 0.37034,0.684379 0.18916,2.734028 -0.41739,4.722043 -1.11173,6.391638 -2.20389,5.299473 -0.45368,-0.453683 -0.44956,-0.997698 0.0339,-4.463595 0.30278,-2.170817 0.5505,-4.330597 0.5505,-4.799509 v -0.852567 l -1.4152,0.633607 c -1.7928,0.802662 -1.95025,0.970401 -1.46248,1.558118 0.59824,0.720845 -0.17806,6.500513 -1.03766,7.725466 -0.36892,0.52572 -0.67077,1.00197 -0.67077,1.058333 0,0.05636 1.90053,0.102479 4.2234,0.102479 h 4.2234 z m 17.85623,1.210804 c 0,-0.06939 0.31518,-0.925792 0.70041,-1.903113 0.38522,-0.977321 0.56323,-1.776949 0.39557,-1.776949 -0.16766,0 -0.50719,0.488548 -0.75453,1.08566 -0.58473,1.411686 -1.84298,2.231675 -2.98472,1.945118 -0.74946,-0.188105 -0.88274,-0.422953 -0.87293,-1.538192 0.0251,-2.853207 1.34167,-10.721707 1.89656,-11.334847 0.30872,-0.341131 0.5613,-0.69527 0.5613,-0.786975 0,-0.126807 -4.00545,-0.108093 -4.50604,0.02105 -0.053,0.01367 0.12765,0.382038 0.40141,0.818601 0.43475,0.69329 0.39439,1.528671 -0.31891,6.6005 -0.58499,4.159503 -0.97407,5.92185 -1.37156,6.2125 -0.30519,0.223164 -0.55401,0.467628 -0.55294,0.54325 0.001,0.07563 1.66795,0.160461 3.70417,0.188528 2.03621,0.02806 3.70221,-0.0057 3.70221,-0.07513 z M 112.97153,86.564828 c 1.75342,-1.753423 0.60814,-5.147595 -1.18835,-3.521797 -1.14144,1.032988 -0.85963,4.075632 0.37749,4.075632 0.14136,0 0.50625,-0.249226 0.81086,-0.553835 z"
         id="path170"
         inkscape:connector-curvature="0" />
      <path
         style="fill:#06758c;stroke-width:0.35277775"
         d="M 98.356979,88.529774 V 53.251999 h 35.277771 35.27778 V 88.529774 123.80755 H 133.63475 98.356979 Z m 6.347811,15.544906 c 1.77928,-1.2635 2.41147,-3.27158 3.3945,-10.782406 0.68331,-5.220807 1.0962,-7.304119 1.58779,-8.011409 0.36539,-0.52572 0.66434,-1.041658 0.66434,-1.146528 0,-0.10487 -1.03187,-0.190674 -2.29305,-0.190674 -1.26118,0 -2.29306,0.08153 -2.29306,0.181176 0,0.09965 0.17535,0.461956 0.38967,0.805132 0.29454,0.471634 0.11789,2.645018 -0.72362,8.90285 -0.61231,4.553394 -1.19523,8.556709 -1.29539,8.896259 -0.2474,0.83876 -1.19288,0.78536 -1.19288,-0.0674 0,-0.98902 -0.73386,-1.29462 -1.28824,-0.53645 -0.66267,0.90626 -0.59348,2.17639 0.14171,2.60116 0.73212,0.423 1.7003,0.20603 2.90823,-0.65173 z m 34.90012,-5.874876 1.0854,-0.913307 v 0.913307 c 0,0.502316 0.0511,0.913302 0.11354,0.913302 0.33588,0 3.41424,-1.147473 3.41424,-1.27267 0,-0.08141 -0.1796,-0.435599 -0.39912,-0.787093 -0.30209,-0.483729 -0.2555,-1.693746 0.19163,-4.977662 0.32491,-2.386221 0.52416,-4.405159 0.44279,-4.486531 -0.0814,-0.08137 -0.68354,0.08539 -1.33815,0.370584 -0.65462,0.285193 -1.48963,0.612807 -1.85559,0.728032 -0.61868,0.194793 -0.62488,0.254253 -0.0883,0.847206 0.51016,0.563718 0.52925,0.976203 0.16455,3.555082 -0.3818,2.699794 -0.9159,3.906386 -1.72916,3.906386 -0.45585,0 -0.41284,-0.995867 0.2333,-5.401811 0.30848,-2.103522 0.48198,-3.903473 0.38556,-3.999897 -0.0964,-0.09642 -0.65844,0.07451 -1.24892,0.379863 -0.59048,0.305349 -1.3196,0.555179 -1.62028,0.555179 -0.61481,0 -0.7288,0.735108 -0.19654,1.267372 0.23169,0.231683 0.18778,1.598323 -0.12977,4.039305 -0.51798,3.981693 -0.32112,5.276655 0.80216,5.276655 0.37797,0 1.17565,-0.410986 1.77262,-0.913302 z m 10.51632,-0.333178 c 0.68557,-0.685567 1.16278,-1.330187 1.06047,-1.432493 -0.1023,-0.102305 -0.5925,0.220487 -1.08933,0.717314 -1.04972,1.049722 -1.38476,1.107923 -2.0139,0.34985 -1.02929,-1.240208 0.0585,-8.831929 1.32335,-9.235524 0.24342,-0.07768 0.58421,0.470859 0.80734,1.299517 0.41718,1.549287 1.16057,1.867164 1.75763,0.751564 0.88297,-1.649857 -0.0313,-2.845413 -2.176,-2.845413 -1.1847,0 -1.63731,0.217219 -2.61694,1.255927 -2.1847,2.316452 -2.9775,7.902 -1.37321,9.674715 1.05518,1.165966 2.84042,0.944718 4.32059,-0.535457 z m 4.57277,0.555971 c 0.58694,-0.685493 0.59475,-0.685493 1.07489,0 0.65562,0.936036 1.56498,0.868045 2.56031,-0.191435 0.68584,-0.730042 0.72681,-0.881944 0.23788,-0.881944 -0.70438,0 -0.69986,0.330041 -0.0574,-4.190196 0.64466,-4.535571 0.36862,-5.450785 -1.69551,-5.621469 -1.12615,-0.09312 -1.52363,0.07974 -2.55513,1.111248 -0.7671,0.767094 -1.22153,1.562753 -1.22153,2.138751 0,0.504472 0.085,0.917222 0.1888,0.917222 0.56813,0 1.92787,-1.225141 1.92787,-1.737036 0,-0.328654 0.21389,-0.890072 0.47532,-1.247591 0.66877,-0.914602 1.05141,-0.154859 0.76771,1.524331 -0.19128,1.132145 -0.48934,1.489993 -1.95314,2.344897 -1.85987,1.086223 -2.51113,2.163381 -2.57031,4.251204 -0.0573,2.020052 1.63322,2.968336 2.82022,1.582018 z m -0.28274,-1.514351 c -0.0992,-1.17014 0.1569,-2.647418 0.61127,-3.526056 0.60553,-1.170972 1.26797,-1.284464 1.03959,-0.178111 -0.0901,0.436563 -0.26162,1.547813 -0.38111,2.469444 -0.14547,1.121929 -0.385,1.675695 -0.72482,1.675695 -0.27915,0 -0.52437,-0.198438 -0.54493,-0.440972 z m 8.87626,1.302233 c 0.60977,-0.649069 0.85633,-1.398231 0.96792,-2.940946 0.1271,-1.757123 0.0105,-2.307653 -0.77159,-3.642134 -1.04598,-1.78483 -1.13975,-2.477177 -0.41676,-3.077206 0.40293,-0.3344 0.58059,-0.27671 0.88195,0.286388 0.20756,0.38783 0.3932,1.072766 0.41254,1.522085 0.0348,0.808411 0.0381,0.807734 0.31762,-0.065 0.56691,-1.770204 0.40867,-2.380939 -0.71876,-2.773962 -1.46971,-0.512343 -2.57701,-0.01499 -3.28409,1.475059 -0.85068,1.792679 -0.71955,3.413636 0.45407,5.612955 1.12537,2.108895 1.11413,3.447058 -0.029,3.447058 -0.46684,0 -0.73857,-0.326697 -0.88636,-1.065674 -0.28193,-1.409623 -0.82629,-1.706827 -0.83238,-0.454452 -0.003,0.545027 -0.0901,1.30846 -0.19429,1.696515 -0.169,0.629289 -0.002,0.713377 1.54571,0.777896 1.44254,0.06014 1.87319,-0.07455 2.55338,-0.798579 z m -37.41388,0.343485 c 0,-0.106038 -0.16616,-0.503276 -0.36925,-0.882748 -0.26584,-0.496726 -0.20792,-1.749916 0.20679,-4.474725 0.42823,-2.813643 0.47996,-4.0337 0.20159,-4.754911 -0.45285,-1.173276 -1.45343,-1.267112 -2.85669,-0.267903 l -0.9862,0.702235 -0.57569,-0.878624 c -0.73907,-1.127953 -0.98036,-1.106976 -2.48744,0.216253 l -1.24699,1.094877 v -0.956231 c 0,-0.776949 -0.11575,-0.90631 -0.61737,-0.689963 -0.33954,0.146448 -1.13329,0.440402 -1.76388,0.653231 -1.18979,0.401563 -1.41986,0.858212 -0.76321,1.514859 0.2759,0.275907 0.26403,1.330984 -0.0424,3.765232 -0.43131,3.426657 -0.96074,4.771905 -1.69855,4.315915 -0.5364,-0.33152 -0.50332,-2.426307 0.10631,-6.729881 0.27438,-1.936994 0.4497,-3.570985 0.38959,-3.631093 -0.0601,-0.06011 -0.64487,0.124053 -1.29949,0.409247 -0.65461,0.285193 -1.47786,0.608292 -1.82944,0.717999 -0.56613,0.176653 -0.58246,0.280532 -0.14277,0.908282 0.42331,0.604361 0.42697,1.211037 0.0248,4.116807 -0.26782,1.935124 -0.70163,3.662091 -1.00376,3.995942 -0.29265,0.323374 -0.53209,0.691462 -0.53209,0.817975 0,0.126513 3.88938,0.230022 8.64306,0.230022 4.75368,0 8.64305,-0.08676 8.64305,-0.192797 z m -4.5443,-0.625203 c -0.3117,-0.375578 -0.31106,-1.329976 0.003,-3.976451 0.39063,-3.295089 1.04221,-4.959124 1.76656,-4.511452 0.72948,0.450843 0.0116,7.025212 -0.91097,8.342315 -0.37884,0.540868 -0.51152,0.563376 -0.85826,0.145588 z m -4.497,-0.394434 c -0.10984,-0.286244 0.0142,-2.055106 0.27566,-3.930801 0.34267,-2.458402 0.64297,-3.515942 1.07581,-3.788604 0.33024,-0.208036 0.71891,-0.259775 0.86371,-0.114974 0.33269,0.332684 -0.4638,6.768846 -0.9501,7.67751 -0.43225,0.807674 -0.98886,0.876695 -1.26508,0.156869 z m 18.60005,-0.80247 c 0.74739,-2.201228 0.45553,-2.39455 -0.66164,-0.438256 -0.7259,1.271122 -0.9408,1.408394 -2.20486,1.408394 -1.70286,0 -1.67878,0.245862 -0.68261,-6.970098 0.57562,-4.16966 0.85538,-5.316855 1.41111,-5.786448 0.38123,-0.322143 0.69314,-0.679331 0.69314,-0.79375 0,-0.11442 -1.11125,-0.208036 -2.46944,-0.208036 -1.3582,0 -2.46945,0.08153 -2.46945,0.181176 0,0.09965 0.19314,0.490433 0.42919,0.868414 0.58065,0.929769 -0.82804,11.785114 -1.64674,12.68977 -0.30048,0.332031 -0.54634,0.715627 -0.54634,0.852435 0,0.136807 1.69173,0.203683 3.7594,0.148611 l 3.7594,-0.100129 z M 113.19298,86.393769 c 0.54842,-0.54842 0.69872,-1.085193 0.61736,-2.204861 -0.0953,-1.312386 -0.2151,-1.492386 -1.0575,-1.589647 -0.75437,-0.0871 -1.06307,0.109045 -1.4993,0.95262 -0.69872,1.351165 -0.69712,2.310275 0.005,3.012417 0.7293,0.729291 1.06412,0.699775 1.93442,-0.170529 z"
         id="path168"
         inkscape:connector-curvature="0" />
      <path
         style="fill:#085464;stroke-width:0.35277775"
         d="M 98.356979,88.529774 V 53.251999 h 35.277771 35.27778 V 88.529774 123.80755 H 133.63475 98.356979 Z m 6.350001,15.563246 c 1.89787,-1.3615 2.44441,-3.07537 3.51946,-11.036585 0.74972,-5.551987 1.15632,-7.600308 1.56853,-7.901721 1.12922,-0.825703 0.59535,-1.211051 -1.67781,-1.211051 -2.50783,0 -2.94325,0.209934 -2.18142,1.051744 0.46606,0.514997 0.39525,1.533872 -0.63325,9.111667 -1.16533,8.585966 -1.63494,10.262906 -2.34846,8.386196 -0.45355,-1.19293 -1.06996,-1.03823 -1.66402,0.41764 -0.86244,2.1136 1.14866,2.80935 3.41697,1.18211 z m 45.49069,-6.244343 c 0.6694,-0.649824 1.0886,-1.305849 0.93158,-1.45784 -0.15703,-0.151987 -0.52565,0.08085 -0.81914,0.517409 -0.61484,0.914534 -2.03497,1.056982 -2.35011,0.235729 -0.68914,-1.795854 0.39075,-8.521851 1.42349,-8.866095 0.21756,-0.07252 0.50159,0.437871 0.63275,1.137027 0.1309,0.697738 0.46938,1.357408 0.75219,1.46593 0.84273,0.323387 1.61008,-0.596071 1.49337,-1.789395 -0.21421,-2.190148 -3.28944,-2.441856 -5.18476,-0.424374 -1.20117,1.278579 -2.1534,4.195508 -2.1534,6.596404 0,1.89998 0.11688,2.256899 1.04202,3.182034 1.29354,1.293545 2.45316,1.130007 4.23201,-0.596829 z m -10.4968,0.316484 0.98944,-0.947946 v 0.947946 c 0,1.105133 0.2057,1.142234 2.10953,0.380474 1.49901,-0.599785 1.65531,-0.818243 1.03164,-1.441908 -0.28028,-0.280282 -0.22118,-1.614981 0.21491,-4.85334 0.33082,-2.456706 0.53509,-4.533145 0.45393,-4.614307 -0.1675,-0.167501 -3.30039,0.972039 -3.6594,1.331047 -0.12904,0.129032 -0.006,0.462851 0.27261,0.741817 0.41444,0.414447 0.44661,1.014349 0.17589,3.279994 -0.31849,2.665437 -1.09605,4.357225 -1.71716,3.736121 -0.15843,-0.158433 -0.0358,-2.237116 0.27255,-4.619297 0.30834,-2.382185 0.46572,-4.426133 0.34975,-4.54211 -0.11598,-0.115977 -0.56782,-0.02869 -1.00409,0.193959 -0.43627,0.222654 -1.23906,0.566452 -1.78398,0.763994 -0.90614,0.328488 -0.94854,0.419462 -0.49635,1.065042 0.42406,0.605437 0.42388,1.218773 -0.001,4.310429 -0.55316,4.022442 -0.31963,5.21603 1.02055,5.21603 0.43011,0 1.22726,-0.426575 1.77145,-0.947945 z m 15.11905,0.396487 c 0.41504,-0.500091 0.48642,-0.500091 0.76628,0 0.43111,0.770343 1.90114,0.687761 2.743,-0.154097 0.64817,-0.648169 0.70555,-0.65441 0.70555,-0.07672 0,0.507725 0.3339,0.643368 1.73362,0.704268 1.53362,0.06673 1.83502,-0.0451 2.61275,-0.969373 0.48353,-0.57464 0.98898,-1.694903 1.12322,-2.489471 0.20664,-1.223095 0.0644,-1.795001 -0.92745,-3.728791 -0.85313,-1.663361 -1.07826,-2.431972 -0.82836,-2.828148 0.53416,-0.846813 1.03837,-0.752449 1.15422,0.216012 0.058,0.48507 0.18562,1.115621 0.28356,1.401223 0.27791,0.810447 0.83361,-0.262907 0.84026,-1.623007 0.004,-0.899734 -0.19314,-1.185967 -1.06883,-1.548688 -3.05327,-1.26471 -5.10442,3.455896 -2.99191,6.88575 0.90681,1.472293 1.15438,3.147056 0.52291,3.537327 -0.56372,0.3484 -1.39565,-0.524192 -1.39565,-1.463855 0,-0.461313 -0.15875,-0.83875 -0.35278,-0.83875 -0.19403,0 -0.35278,0.30813 -0.35278,0.684735 0,0.73873 -0.52474,1.232545 -0.99856,0.939711 -0.16114,-0.0996 -0.0784,-1.815528 0.18391,-3.813181 0.26231,-1.997654 0.39163,-3.987278 0.28741,-4.421385 -0.51942,-2.163277 -3.73672,-2.159494 -5.06261,0.006 -0.69049,1.127721 -1.09848,2.616309 -0.76015,2.7735 0.27717,0.128774 2.11667,-1.156215 2.11667,-1.478605 0,-0.159081 0.16465,-0.722298 0.36588,-1.251595 0.5297,-1.3932 1.16103,-0.588759 0.84789,1.080382 -0.20485,1.091953 -0.56416,1.517371 -2.12476,2.515679 -1.82691,1.168657 -2.60786,2.478479 -2.61482,4.385616 -0.006,1.671151 2.20228,2.747486 3.19153,1.55551 z m -0.37128,-2.458484 c 0,-1.37464 0.84101,-3.692835 1.33971,-3.692835 0.28849,0 -0.0521,3.368929 -0.45474,4.497917 -0.32349,0.907069 -0.88497,0.396278 -0.88497,-0.805082 z m -28.575,2.198554 c 0,-0.252236 -0.15049,-0.609424 -0.33443,-0.79375 -0.21075,-0.211198 -0.13068,-1.734891 0.21651,-4.120032 0.5956,-4.091699 0.47775,-5.34632 -0.55405,-5.898522 -0.51263,-0.274354 -0.95318,-0.158684 -1.93611,0.508352 -0.69986,0.474938 -1.27247,0.720896 -1.27247,0.546574 0,-0.390929 -1.00674,-1.425677 -1.38708,-1.425677 -0.15309,0 -0.87712,0.406334 -1.60895,0.902965 -1.25585,0.852249 -1.31992,0.862155 -1.14058,0.176389 0.22972,-0.878485 0.24645,-0.877477 -1.90146,-0.114606 -1.72631,0.613132 -2.05176,1.03487 -1.34442,1.742204 0.26963,0.269638 0.26346,1.229205 -0.0214,3.33375 -0.46829,3.459141 -0.84618,4.54263 -1.58434,4.54263 -0.70035,0 -0.69595,-1.376369 0.0198,-6.194336 0.30611,-2.060437 0.46287,-3.839946 0.34835,-3.954462 -0.11451,-0.114514 -0.76722,0.05837 -1.45047,0.384184 -0.68324,0.325816 -1.475,0.592393 -1.75946,0.592393 -0.28445,0 -0.51719,0.238125 -0.51719,0.529167 0,0.291041 0.18064,0.529166 0.40143,0.529166 0.28632,0 0.33214,0.784014 0.15977,2.734028 -0.30558,3.45713 -0.77698,5.251799 -1.44698,5.508903 -0.28893,0.110875 -0.52533,0.365323 -0.52533,0.565443 0,0.240241 2.99608,0.363848 8.81944,0.363848 7.00128,0 8.81944,-0.09454 8.81944,-0.458611 z m -9.02163,-0.716143 c -0.099,-0.258057 0.0279,-2.028535 0.28215,-3.934399 0.33392,-2.503498 0.62704,-3.56918 1.05614,-3.839852 0.32667,-0.206058 0.7013,-0.267293 0.83252,-0.136077 0.30202,0.30202 -0.517,6.934669 -0.9585,7.762165 -0.39116,0.733139 -0.96111,0.802795 -1.21231,0.148163 z m 4.49851,0.01591 c -0.27713,-0.333915 -0.25202,-1.402662 0.0906,-3.855452 0.51349,-3.676463 0.68194,-4.157927 1.45477,-4.157927 0.62713,0 0.65907,1.427237 0.11398,5.092192 -0.41108,2.763879 -0.97132,3.750179 -1.65931,2.921197 z M 135.489,96.857668 c 0.88207,-2.378149 0.60042,-2.765319 -0.65175,-0.895936 -0.82518,1.231925 -1.28912,1.587366 -2.18577,1.67459 -0.74079,0.07206 -1.20564,-0.06491 -1.33126,-0.392267 -0.17986,-0.468715 1.05349,-10.297139 1.45467,-11.592118 0.0996,-0.321624 0.41325,-0.673829 0.6969,-0.782678 1.27555,-0.489462 0.35498,-0.925596 -1.9537,-0.925596 -1.89532,0 -2.46945,0.116193 -2.46945,0.499769 0,0.274872 0.19281,0.564036 0.42845,0.642585 0.32705,0.109014 0.24199,1.556275 -0.35935,6.114814 -0.66241,5.02153 -0.89904,6.04903 -1.48678,6.455998 -1.33568,0.924871 -0.6956,1.126522 3.25939,1.026859 l 3.95837,-0.09975 0.64028,-1.726262 z M 113.3648,86.263686 c 0.70689,-1.078838 0.55471,-3.347586 -0.2587,-3.856964 -1.33266,-0.834548 -2.96449,2.296004 -2.069,3.969239 0.5317,0.993499 1.63814,0.940132 2.3277,-0.112275 z"
         id="path166"
         inkscape:connector-curvature="0" />
      <path
         style="fill:#0a3b45;stroke-width:0.35277775"
         d="M 98.356979,88.529774 V 53.251999 h 35.277771 35.27778 V 88.529774 123.80755 H 133.63475 98.356979 Z m 5.767521,16.047506 c 1.29266,-0.61984 2.49684,-2.33094 3.00783,-4.27405 0.19765,-0.751578 0.7743,-4.379926 1.28144,-8.062989 0.74401,-5.403196 1.05422,-6.81958 1.60626,-7.333882 0.66606,-0.620531 0.68417,-0.610892 0.68417,0.364117 0,0.550836 0.1905,1.19202 0.42333,1.424854 1.5603,1.560291 3.86497,-1.71481 2.58325,-3.670966 -0.70243,-1.072038 -1.36656,-1.070496 -2.21265,0.0051 -0.6,0.762766 -0.93514,0.84873 -3.27482,0.839989 -2.71471,-0.01014 -3.31262,0.328282 -2.32495,1.315954 0.29839,0.298389 0.48239,0.736369 0.40889,0.973289 -0.0735,0.236921 -0.56724,3.843889 -1.0972,8.015486 -0.52996,4.171597 -1.09778,7.951458 -1.26182,8.399698 -0.33932,0.92717 -1.00514,0.72405 -1.00514,-0.30663 0,-0.77003 -0.78774,-0.91498 -1.32474,-0.24377 -0.71897,0.89866 -0.82278,1.94723 -0.24954,2.52047 0.70564,0.70563 1.33762,0.71327 2.75569,0.0333 z m 45.20886,-5.760715 c 1.10812,-0.677107 2.22424,-2.359314 1.82816,-2.755395 -0.12693,-0.126926 -0.56202,0.190334 -0.96688,0.705026 -0.95691,1.216522 -2.01035,1.223472 -2.3136,0.01528 -0.53346,-2.125514 0.6922,-8.604475 1.62776,-8.604475 0.15136,0 0.38101,0.563968 0.51032,1.253264 0.26029,1.387451 0.98513,1.878923 1.78818,1.212452 0.84893,-0.70455 0.65378,-2.364859 -0.35571,-3.026303 -1.36545,-0.894675 -3.07588,-0.404434 -4.53454,1.299688 -1.35221,1.579753 -1.99341,3.610642 -1.99341,6.313801 0,3.662243 1.83863,5.157707 4.40972,3.586667 z m 14.77294,-1.813712 c 0.7245,-1.810698 0.72262,-3.074278 -0.007,-4.416135 -1.38137,-2.542014 -1.53526,-2.945966 -1.32805,-3.485959 0.41845,-1.090455 1.20196,-0.638628 1.20196,0.693134 0,1.786177 0.85209,1.376962 0.98931,-0.475114 0.0871,-1.176006 -0.0326,-1.524091 -0.63481,-1.846412 -1.25626,-0.672333 -2.55131,-0.286686 -3.42991,1.021382 -1.11251,1.656294 -1.076,3.942576 0.0982,6.148266 0.95993,1.803234 1.02857,3.236369 0.155,3.236369 -0.29259,0 -0.68008,-0.512593 -0.86671,-1.146527 -0.40921,-1.389991 -0.74265,-1.457495 -1.05486,-0.213558 -0.16815,0.669967 -0.34192,0.825211 -0.61643,0.550704 -0.2745,-0.274504 -0.254,-1.4608 0.0727,-4.208173 0.50695,-4.262906 0.29403,-5.212562 -1.25592,-5.601575 -1.89295,-0.4751 -4.03088,1.239549 -4.55325,3.651769 -0.29931,1.382158 -0.0861,1.418417 1.45018,0.24663 0.7718,-0.58868 1.17982,-1.198696 1.17982,-1.763888 0,-0.560511 0.20033,-0.863992 0.57031,-0.863992 0.41928,0 0.51398,0.21021 0.3576,0.79375 -0.117,0.436562 -0.21489,1.07303 -0.21754,1.414371 -0.003,0.3639 -0.75151,1.080075 -1.80995,1.731334 -1.90691,1.173332 -2.78097,2.584767 -2.78097,4.490681 0,1.859692 2.10372,2.91484 3.1935,1.601738 0.41504,-0.500091 0.48641,-0.500091 0.76628,0 0.40498,0.723667 1.98819,0.705375 2.80341,-0.03239 0.55018,-0.497904 0.64514,-0.505806 0.64514,-0.05369 0,0.351092 0.3697,0.540671 1.09456,0.56128 0.60201,0.01711 1.17777,0.114318 1.27945,0.216002 0.47611,0.476113 2.17312,-0.939359 2.69754,-2.250006 z m -9.64841,-0.800163 c 0.005,-0.63059 0.32318,-1.781528 0.70687,-2.557639 l 0.69761,-1.411111 -0.20381,2.280793 c -0.11209,1.254436 -0.2808,2.405373 -0.3749,2.557639 -0.40088,0.648638 -0.83433,0.192133 -0.82577,-0.869682 z m -34.99441,2.588158 6.46622,-0.03052 -0.23337,-1.062532 c -0.12835,-0.584394 -0.0356,-2.795019 0.20622,-4.9125 0.39732,-3.47968 0.38236,-3.937332 -0.15556,-4.758301 -0.74331,-1.13443 -1.30467,-1.142616 -2.61724,-0.03816 l -1.03414,0.870171 -0.39647,-0.870171 c -0.5186,-1.1382 -1.48821,-1.105078 -2.92648,0.09997 -0.63684,0.533576 -1.03183,0.764099 -0.87775,0.512272 0.15408,-0.251825 0.19311,-0.68468 0.0867,-0.961899 -0.16652,-0.433938 -0.33032,-0.430609 -1.17779,0.02394 -0.5414,0.290383 -1.44189,0.687587 -2.00107,0.882677 -0.94272,0.328894 -0.97592,0.39976 -0.45633,0.973899 0.50117,0.553787 0.51021,0.978288 0.0856,4.018523 -0.51432,3.682374 -0.68261,4.163785 -1.45559,4.163785 -0.6421,0 -0.63926,-0.942054 0.0165,-5.468055 0.28111,-1.940277 0.51615,-3.888191 0.52231,-4.328697 l 0.0112,-0.80092 -1.39705,0.712726 c -0.76839,0.391999 -1.64151,0.712725 -1.94028,0.712725 -0.637,0 -0.71679,0.743652 -0.14152,1.318927 0.66239,0.662386 -0.25626,6.771064 -1.16349,7.736761 -0.39778,0.423422 -0.64213,0.900674 -0.54298,1.060556 0.0992,0.159886 1.18734,0.264746 2.41821,0.233024 1.23087,-0.03171 5.14775,-0.07141 8.70417,-0.08819 z m 1.9674,-1.230443 c -0.26816,-0.692291 0.33663,-6.969128 0.73334,-7.611022 0.47912,-0.775218 1.23998,-0.35634 1.23998,0.682647 0,1.956135 -0.7867,6.340545 -1.25077,6.97075 -0.44122,0.599172 -0.47481,0.597204 -0.72255,-0.04237 z m -4.51474,-0.149172 c -0.0988,-0.159918 0.038,-1.84935 0.30405,-3.754293 0.45663,-3.2694 0.9975,-4.457562 1.70643,-3.74863 0.26096,0.260956 -0.21045,4.986869 -0.69824,6.999936 -0.18892,0.779649 -0.95886,1.074769 -1.31224,0.502987 z m 18.60634,-0.519018 c 0.3924,-1.099058 0.58271,-2.120536 0.4229,-2.269948 -0.1598,-0.149412 -0.35889,-0.08083 -0.44241,0.1524 -0.0835,0.233235 -0.50467,0.94761 -0.93589,1.5875 -0.63404,0.940847 -1.01758,1.16344 -2.00471,1.16344 -1.1712,0 -1.21826,-0.05004 -1.16119,-1.234722 0.0327,-0.679098 0.33546,-3.361059 0.67276,-5.959912 0.47198,-3.636578 0.76306,-4.853441 1.26343,-5.281874 1.07369,-0.919323 0.7674,-1.105436 -1.81928,-1.105436 -2.48534,0 -3.0387,0.34797 -2.0792,1.307471 0.28515,0.285145 0.19014,1.827386 -0.35278,5.726381 -0.40866,2.934875 -0.74302,5.483578 -0.74302,5.663787 0,0.18021 -0.33439,0.639177 -0.74308,1.019934 -0.40869,0.380753 -0.66144,0.823499 -0.56166,0.983879 0.0998,0.16038 1.88899,0.281206 3.97604,0.268496 l 3.79463,-0.02311 0.71346,-1.998292 z m 4.26048,1.331599 c 0.8167,-0.756899 0.92728,-0.78758 0.74271,-0.206079 -0.31538,0.993673 0.39577,1.248449 2.00361,0.717815 1.46204,-0.482519 2.0959,-1.269482 1.37926,-1.712391 -0.31193,-0.192782 -0.28149,-1.187153 0.12498,-4.082749 0.29554,-2.105343 0.53734,-4.262854 0.53734,-4.794472 v -0.966576 l -1.85208,0.753607 c -1.01864,0.414484 -1.91847,0.797941 -1.9996,0.852128 -0.0811,0.05418 0.0578,0.48218 0.30876,0.951103 0.8951,1.672512 -0.38917,8.055366 -1.41449,7.030045 -0.17231,-0.172307 -0.0859,-1.842995 0.19804,-3.830072 0.27702,-1.938451 0.5087,-4.031467 0.51485,-4.651146 l 0.0112,-1.12669 -1.67569,0.727066 c -2.11762,0.918811 -2.52613,1.28612 -1.87675,1.687457 0.42587,0.263208 0.43214,0.904431 0.043,4.396133 -0.36319,3.258559 -0.36672,4.19512 -0.0174,4.616048 0.65514,0.789396 1.89308,0.638947 2.97229,-0.361227 z"
         id="path164"
         inkscape:connector-curvature="0" />
      <path
         style="fill:#0b2a30;stroke-width:0.35277775"
         d="M 98.356979,88.529774 V 53.251999 h 35.277771 35.27778 V 88.529774 123.80755 H 133.63475 98.356979 Z m 5.980681,16.059936 c 2.20393,-1.13969 2.86325,-3.10483 4.08633,-12.179381 0.73381,-5.444471 1.06372,-7.00654 1.58184,-7.489906 0.62769,-0.585587 0.65919,-0.565258 0.76471,0.493589 0.13393,1.343931 1.06385,2.051946 1.96213,1.493917 1.37903,-0.856674 1.77158,-2.895269 0.83474,-4.33493 -0.43425,-0.667314 -2.04958,-0.231161 -2.32193,0.626943 -0.18413,0.580141 -0.5613,0.662129 -2.93315,0.637595 -2.28893,-0.02367 -2.74012,0.06669 -2.83669,0.568153 -0.0632,0.327969 0.0555,0.596306 0.2638,0.596306 0.20826,0 0.37816,0.515938 0.37757,1.146528 -0.002,1.987795 -2.09018,16.608066 -2.41924,16.937126 -0.18381,0.18381 -0.47074,-0.13467 -0.69126,-0.76726 -0.4355,-1.24928 -1.16118,-1.17501 -1.77953,0.18211 -0.51129,1.12217 -0.50571,1.65801 0.0228,2.18649 0.57363,0.57364 1.86944,0.53282 3.0879,-0.0973 z m 35.13743,-5.996728 c 0.99404,-0.758194 1.12187,-0.786607 0.97271,-0.216204 -0.2592,0.991158 0.2926,1.110513 2.11101,0.456618 1.77798,-0.63936 2.31986,-1.339783 1.52405,-1.969974 -0.43073,-0.341098 -0.41531,-1.023412 0.11095,-4.909905 0.33616,-2.482564 0.50263,-4.580859 0.36992,-4.662876 -0.13271,-0.08202 -0.85396,0.163235 -1.60278,0.545005 -0.74882,0.38177 -1.56605,0.694128 -1.81607,0.694128 -0.55535,0 -0.59596,0.775829 -0.0682,1.303567 0.49543,0.49543 0.0616,5.486964 -0.5495,6.322726 -0.97234,1.329743 -1.12453,0.130221 -0.5424,-4.274904 0.32281,-2.442771 0.47835,-4.508505 0.34564,-4.590522 -0.1327,-0.08202 -0.85395,0.163235 -1.60277,0.545005 -0.74882,0.38177 -1.56605,0.694128 -1.81607,0.694128 -0.56507,0 -0.58096,0.512755 -0.0426,1.374821 0.31415,0.503026 0.31404,1.360621 -3.5e-4,3.611184 -0.54294,3.885421 -0.52052,4.732391 0.14283,5.39574 0.75064,0.75064 1.12553,0.702172 2.46375,-0.318537 z M 150.0742,98.26644 c 0.65969,-0.659694 1.19944,-1.453444 1.19944,-1.763889 0,-0.793813 -0.31803,-0.703767 -1.12136,0.3175 -1.96694,2.500563 -3.06007,-0.702589 -1.90918,-5.594399 0.26741,-1.136643 0.74118,-2.321598 1.05282,-2.633235 0.52029,-0.520297 0.56661,-0.493854 0.56661,0.3235 0,0.489564 0.22883,1.19827 0.5085,1.574903 0.69471,0.935538 1.74668,0.285771 1.89257,-1.168986 0.12718,-1.268061 -0.92481,-2.203171 -2.47855,-2.203171 -2.91326,0 -5.78915,5.729005 -4.86997,9.701388 0.65343,2.823891 3.09664,3.508859 5.15912,1.446389 z m 8.03103,0.468284 c 0.89425,-0.703418 0.92952,-0.705622 0.92952,-0.05811 0,0.574449 0.25107,0.668143 1.71379,0.63955 1.93683,-0.03786 2.76676,-0.570999 3.45613,-2.220199 0.71808,-1.717848 0.56618,-3.619133 -0.41662,-5.214803 -0.98711,-1.602666 -1.16638,-3.351389 -0.34358,-3.351389 0.36958,0 0.52917,0.372378 0.52917,1.234722 0,0.862344 0.15959,1.234722 0.52917,1.234722 0.85789,0 0.72518,-3.045273 -0.1532,-3.515365 -2.15605,-1.153884 -3.95885,0.344323 -4.18555,3.478384 -0.12797,1.769176 -0.012,2.304989 0.79777,3.686802 0.99522,1.698202 1.0851,3.229345 0.18959,3.229345 -0.29259,0 -0.68008,-0.512593 -0.86671,-1.146527 -0.38583,-1.310591 -0.75008,-1.460207 -1.07357,-0.440972 -0.12316,0.388055 -0.3941,0.705555 -0.60208,0.705555 -0.2496,0 -0.30155,-0.629581 -0.15282,-1.852083 0.72532,-5.961902 0.71685,-6.476245 -0.12041,-7.313501 -0.97788,-0.977886 -2.84701,-0.796768 -4.1201,0.399238 -0.83497,0.784414 -1.823,3.300252 -1.44467,3.678582 0.4283,0.428297 2.70602,-1.453871 2.80826,-2.320569 0.0572,-0.485069 0.22311,-0.842257 0.36863,-0.79375 0.14552,0.04851 0.26458,0.16757 0.26458,0.264584 0,0.09701 0,0.639021 0,1.204464 0,0.852554 -0.29845,1.21171 -1.74813,2.103705 -2.50868,1.543604 -3.5393,4.07084 -2.47279,6.063633 0.43598,0.814641 2.16969,0.924496 2.79022,0.176801 0.35956,-0.433243 0.51713,-0.408012 1.10153,0.176389 0.85704,0.857042 1.07593,0.852195 2.22187,-0.04921 z m -3.4692,-1.720493 c -0.34988,-0.566106 0.12266,-3.009237 0.73065,-3.777615 0.4602,-0.581604 0.49036,-0.427472 0.28706,1.466769 -0.23476,2.187313 -0.59231,2.999168 -1.01771,2.310846 z m -28.69437,1.58485 c 0.13442,-0.189339 0.0697,-0.554711 -0.14374,-0.811936 -0.28319,-0.341231 -0.26075,-1.573678 0.083,-4.558191 0.40801,-3.54227 0.402,-4.213705 -0.0448,-5.009709 -0.69126,-1.231555 -1.44302,-1.310501 -2.64379,-0.277638 l -0.99867,0.859023 -0.37372,-0.752789 c -0.53243,-1.072476 -1.67833,-1.106801 -2.89078,-0.08659 -0.94726,0.797069 -1.04213,0.816531 -1.01879,0.208993 0.0327,-0.850912 -0.136,-0.858316 -2.2719,-0.09971 -1.8577,0.659799 -2.05453,0.91998 -1.28107,1.693434 0.40231,0.402315 0.40251,1.025374 0.001,3.924667 -0.49365,3.56683 -0.87367,4.465845 -1.58643,3.753086 -0.3,-0.300002 -0.2392,-1.608518 0.24068,-5.18034 0.35314,-2.62842 0.56262,-4.858395 0.46552,-4.955497 -0.0971,-0.0971 -0.7946,0.138551 -1.54999,0.523673 -0.75538,0.385122 -1.57799,0.700222 -1.82801,0.700222 -0.55718,0 -0.59534,0.77645 -0.0643,1.307521 0.28521,0.285214 0.27939,1.223659 -0.0216,3.485483 -0.41805,3.141469 -0.8249,4.379217 -1.43945,4.379217 -0.1872,0 -0.34037,0.277813 -0.34037,0.617362 0,0.571246 0.65222,0.617608 8.73125,0.620673 5.2786,0.0021 8.8279,-0.132821 8.97566,-0.340949 z m -9.02612,-1.188812 c -0.0992,-0.160446 0.0554,-1.86086 0.34354,-3.778694 0.48743,-3.244701 0.99387,-4.396937 1.64597,-3.744841 0.29517,0.295172 -0.34824,5.7496 -0.82827,7.021512 -0.30376,0.804873 -0.83273,1.033557 -1.16124,0.502023 z m 4.52428,-2.442301 c 0.35266,-3.961475 0.66502,-5.181363 1.36104,-5.315405 0.72038,-0.13873 0.77225,0.745099 0.24466,4.168877 -0.53759,3.48869 -0.66696,3.880555 -1.28109,3.880555 -0.49423,0 -0.53639,-0.355113 -0.32461,-2.734027 z m 13.98113,2.38125 c 1.15964,-2.859352 0.73643,-3.836786 -0.62715,-1.448453 -0.63722,1.116104 -1.01508,1.395638 -2.04988,1.516447 -0.69777,0.08146 -1.32844,0.05139 -1.4015,-0.06683 -0.0731,-0.118212 0.17033,-2.429023 0.54086,-5.135132 0.37054,-2.706109 0.67808,-5.198011 0.68342,-5.537559 0.005,-0.339549 0.32722,-0.934861 0.71528,-1.322917 1.25686,-1.256862 0.9079,-1.5875 -1.67547,-1.5875 -2.55542,0 -3.18783,0.343716 -2.34532,1.274679 0.47182,0.521355 0.44898,1.176867 -0.20922,6.005278 -0.86053,6.312669 -0.94353,6.654764 -1.6146,6.654764 -0.27797,0 -0.5053,0.277813 -0.50519,0.617362 1.9e-4,0.550933 0.42225,0.617361 3.92258,0.617361 h 3.92236 z"
         id="path162"
         inkscape:connector-curvature="0" />
      <path
         style="fill:#0c0c0c;stroke-width:0.35277775"
         d="M 98.356979,88.529774 V 53.251999 h 35.277771 35.27778 V 88.529774 123.80755 H 133.63475 98.356979 Z m 7.137961,15.125346 c 1.40465,-1.67522 1.92053,-3.601 2.91777,-10.892013 0.96857,-7.081493 1.13192,-7.865319 1.5812,-7.587646 0.16349,0.10104 0.37765,-0.01572 0.47592,-0.259461 0.0983,-0.243743 0.1912,-0.01279 0.20652,0.513226 0.0153,0.526018 0.3577,1.263695 0.76084,1.639282 l 0.73299,0.682884 -1.26216,0.41655 c -1.28798,0.425074 -1.57108,0.970127 -0.8687,1.672511 0.28943,0.289422 0.27814,1.217531 -0.0427,3.510138 -0.46095,3.293978 -0.87578,4.504626 -1.4268,4.164076 -0.18429,-0.113898 -0.33507,0.199154 -0.33507,0.695674 v 0.902765 h 8.7817 c 7.87793,0 8.80496,-0.06063 9.00778,-0.589156 0.12434,-0.324037 0.0434,-0.702059 -0.17987,-0.840048 -0.30506,-0.188532 -0.29214,-1.309487 0.052,-4.510077 0.35027,-3.257786 0.36174,-4.470319 0.0488,-5.157174 -0.5326,-1.168939 -1.80233,-1.17777 -2.88991,-0.0201 l -0.82473,0.877889 -0.39215,-0.786569 c -0.43179,-0.86608 -1.32633,-1.171271 -2.24712,-0.76665 -0.32821,0.144228 -0.72761,0.233095 -0.88756,0.197484 -0.15994,-0.03561 -0.20138,0.07995 -0.0921,0.2568 0.1093,0.17685 -0.0159,0.499671 -0.27822,0.717381 -0.38422,0.318873 -0.44406,0.223757 -0.30777,-0.489195 0.12205,-0.638458 0.0161,-0.88503 -0.38029,-0.88503 -0.30221,0 -0.64492,0.154436 -0.76157,0.343191 -0.11666,0.188755 -0.84041,0.512374 -1.60832,0.719153 -1.48598,0.400131 -1.64075,0.672342 -0.98202,1.72714 0.31531,0.504892 0.31803,1.444389 0.0114,3.93495 -0.41468,3.367941 -0.81419,4.316956 -1.52015,3.610998 -0.2835,-0.283499 -0.22987,-1.554684 0.19771,-4.686631 0.3227,-2.363689 0.54998,-4.64132 0.50507,-5.061403 -0.0449,-0.420083 0.12951,-1.438942 0.38761,-2.264133 0.35953,-1.149503 0.37541,-1.706337 0.0679,-2.381249 -0.51023,-1.119813 -1.92973,-1.181645 -2.67575,-0.116553 -0.4686,0.669019 -0.86709,0.764352 -3.195,0.764352 -2.56985,0 -2.65964,0.02849 -2.65964,0.843968 0,0.472813 0.15515,0.748085 0.35278,0.625939 0.20406,-0.126116 0.35278,0.211209 0.35278,0.800187 0,1.881301 -2.11621,16.80297 -2.42711,17.11387 -0.17476,0.17476 -0.47071,-0.16086 -0.68571,-0.77761 -0.20804,-0.59678 -0.54119,-1.08506 -0.74032,-1.08506 -0.40892,0 -1.43853,1.83068 -1.43853,2.55776 0,1.77281 3.14584,1.68358 4.66852,-0.13241 z m 11.44291,-6.217708 c -0.28667,-0.480099 0.74065,-6.797159 1.19429,-7.34376 0.874,-1.053105 1.05487,0.09757 0.54688,3.479136 -0.28102,1.870629 -0.61218,3.564961 -0.73592,3.765176 -0.26339,0.42617 -0.77966,0.477245 -1.00525,0.09945 z m 1.17468,-2.246499 c 0,-0.194028 -0.15875,-0.254667 -0.35277,-0.134751 -0.19403,0.119917 -0.35278,0.376778 -0.35278,0.570805 0,0.194028 0.15875,0.254667 0.35278,0.134751 0.19402,-0.119916 0.35277,-0.376777 0.35277,-0.570805 z m 0.35278,-2.998611 c 0,-0.291042 -0.15875,-0.431056 -0.35278,-0.311139 -0.19402,0.119916 -0.35277,0.456152 -0.35277,0.747193 0,0.291042 0.15875,0.431056 0.35277,0.31114 0.19403,-0.119916 0.35278,-0.456152 0.35278,-0.747194 z m 2.82222,4.465771 c 0,-1.718486 0.7684,-6.515685 1.10136,-6.875938 0.1943,-0.21022 0.4578,-0.187092 0.70694,0.06205 0.36944,0.369439 0.008,4.382991 -0.63579,7.064064 -0.28512,1.187012 -1.17251,0.997676 -1.17251,-0.250173 z m 18.12048,2.076651 c 0.74308,-0.584507 0.92952,-0.62406 0.92952,-0.19721 0,0.293674 0.14185,0.621619 0.31522,0.728765 0.42515,0.26276 3.29084,-0.770424 3.63373,-1.310086 0.39366,-0.619584 0.34711,-1.392936 -0.0684,-1.136142 -0.49589,0.306476 -0.43392,-2.192926 0.1487,-5.997222 0.48398,-3.1602 0.31724,-4.161976 -0.57472,-3.452967 -0.25076,0.199323 -1.05124,0.554157 -1.77884,0.788518 -1.4193,0.457154 -1.55426,0.716086 -0.91053,1.746871 0.48014,0.76883 -0.0913,5.852851 -0.72957,6.491146 -0.78516,0.78516 -0.86216,-0.259592 -0.32702,-4.437299 0.5428,-4.237636 0.42818,-5.316998 -0.48738,-4.589236 -0.25076,0.199323 -1.05123,0.554157 -1.77884,0.788518 -1.3419,0.432227 -1.64058,0.970947 -0.93147,1.680058 0.28674,0.286742 0.27272,1.39324 -0.0524,4.136729 -0.33237,2.804459 -0.34398,3.964516 -0.0462,4.618002 0.48508,1.064637 1.42135,1.114495 2.65824,0.141555 z m 10.37849,-0.140949 c 0.57005,-0.479657 1.09817,-0.810859 1.1736,-0.736 0.0754,0.07486 0.17818,-0.424039 0.22832,-1.10866 l 0.0912,-1.244766 -1.02646,1.098825 c -0.56455,0.604351 -1.1953,1.098821 -1.40167,1.098821 -0.81297,0 -1.19534,-1.535606 -0.97437,-3.913137 0.39551,-4.255632 1.64718,-6.643628 2.13086,-4.06539 0.25176,1.342012 0.75879,1.703176 1.70666,1.215669 0.7882,-0.405388 0.82862,-2.500494 0.063,-3.266109 -0.66802,-0.668025 -2.48522,-0.702266 -3.62835,-0.06837 -2.22293,1.232677 -4.0532,6.381176 -3.273,9.206851 0.20148,0.729693 0.63667,1.625438 0.96709,1.990545 0.85938,0.949604 2.68146,0.853363 3.94315,-0.20828 z m 5.01492,0.166554 c 0.54069,-0.540696 0.70555,-0.583484 0.70555,-0.18311 0,0.955527 1.71105,1.061297 2.66537,0.164762 0.81524,-0.765877 0.86241,-0.772435 0.86241,-0.119864 0,0.579791 0.27299,0.702212 1.70478,0.764509 1.36968,0.05959 1.85048,-0.08135 2.44595,-0.717032 1.70628,-1.82149 1.96153,-4.611913 0.62098,-6.788431 -0.93181,-1.51287 -1.2077,-3.5141 -0.45018,-3.265424 0.24253,0.07962 0.49072,0.648472 0.55152,1.264119 0.16258,1.646213 1.02102,1.423927 1.1861,-0.307125 0.16137,-1.692064 -0.47725,-2.45407 -2.05668,-2.45407 -2.76743,0 -3.96767,4.365088 -2.08403,7.579285 1.0906,1.860963 1.18039,3.004047 0.23597,3.004047 -0.69905,0 -1.09607,-0.649368 -1.09607,-1.792742 0,-0.978521 -0.6532,-0.831758 -0.91347,0.205243 -0.42271,1.684199 -0.95828,0.957996 -0.71547,-0.970139 0.67029,-5.322792 0.68071,-6.217602 0.083,-7.129803 -0.8978,-1.370226 -2.76303,-1.243607 -4.29843,0.291794 -0.65322,0.653226 -1.23266,1.144197 -1.28764,1.091048 -0.055,-0.05315 -0.136,0.523642 -0.18006,1.281758 -0.0914,1.572834 0.0384,1.63383 1.46922,0.690604 0.56998,-0.375729 1.13656,-0.621192 1.25908,-0.545475 0.12251,0.07572 0.15685,-0.311394 0.0763,-0.860252 -0.0806,-0.548859 0.0275,-1.105468 0.24022,-1.236913 0.25586,-0.158126 0.38669,0.239899 0.38669,1.176397 0,1.259311 -0.13059,1.477345 -1.18431,1.977372 -2.12158,1.006754 -3.14738,2.405109 -3.32365,4.530757 -0.13978,1.685498 -0.0645,1.965469 0.66618,2.477251 1.07664,0.754105 1.57432,0.727781 2.43067,-0.128566 z m -0.15639,-1.731532 c -0.35459,-0.57374 0.10412,-3.009787 0.71407,-3.792181 0.45168,-0.579381 0.48219,-0.439364 0.28117,1.29038 -0.26143,2.249621 -0.60983,3.12541 -0.99524,2.501801 z m 0.39003,-1.531662 c -0.0979,-0.242535 -0.17794,-0.0441 -0.17794,0.440972 0,0.485069 0.0801,0.683507 0.17794,0.440972 0.0979,-0.242535 0.0979,-0.63941 0,-0.881944 z m -19.79091,2.469444 c 0.22074,-0.99502 0.28977,-1.053292 0.52235,-0.440972 0.1989,0.523638 0.25646,0.387201 0.22327,-0.529167 -0.0246,-0.679097 0.0871,-1.610691 0.24826,-2.070209 0.48687,-1.388364 -0.55197,-0.723255 -1.48318,0.949596 -0.70979,1.27508 -0.98001,1.473391 -2.00765,1.473391 -0.65311,0 -1.2511,-0.119063 -1.32887,-0.264584 -0.0778,-0.14552 0.19746,-2.78265 0.61161,-5.860291 0.57323,-4.259709 0.89681,-5.700856 1.3553,-6.036113 0.33126,-0.242223 0.60229,-0.677371 0.60229,-0.966996 0,-0.761268 -4.81154,-0.765493 -5.10357,-0.0045 -0.11019,0.287161 0.0402,0.700378 0.33431,0.91826 0.47543,0.352263 0.44994,1.018316 -0.23002,6.01216 -0.57916,4.253515 -0.92136,5.772686 -1.41048,6.261805 -0.35519,0.355187 -0.64579,0.883919 -0.64579,1.174961 0,0.43948 0.68284,0.529166 4.02891,0.529166 h 4.02892 z m 13.104,-3.523664 c -0.0844,-0.438824 -0.15663,-0.162864 -0.16054,0.613247 -0.004,0.776111 0.0651,1.135151 0.15342,0.797864 0.0883,-0.337288 0.0915,-0.972288 0.007,-1.411111 z m -7.69841,-0.621475 c 0.0265,-0.470369 -0.008,-0.470369 -0.31221,0 -0.18809,0.291042 -0.32858,0.926042 -0.31221,1.411111 l 0.0298,0.881945 0.28244,-0.881945 c 0.15535,-0.485069 0.29584,-1.120069 0.31221,-1.411111 z m -31.82122,-0.06615 c -0.11261,-0.281421 -0.19621,-0.19783 -0.21314,0.213138 -0.0153,0.371884 0.0681,0.580245 0.18529,0.463021 0.11723,-0.117228 0.12976,-0.421499 0.0279,-0.676159 z m 50.69362,-0.481344 c 0.12047,-0.313944 0.0613,-0.455549 -0.13865,-0.331956 -0.1918,0.11854 -0.34874,0.364913 -0.34874,0.547489 0,0.507447 0.25286,0.395627 0.48739,-0.215533 z m -32.70195,-2.693655 c -0.11262,-0.281422 -0.19621,-0.197831 -0.21314,0.213137 -0.0153,0.371885 0.0681,0.580246 0.18529,0.463021 0.11722,-0.117228 0.12975,-0.421499 0.0279,-0.676158 z m 14.10376,-0.374827 c -0.0979,-0.242534 -0.17794,-0.0441 -0.17794,0.440972 0,0.48507 0.0801,0.683507 0.17794,0.440973 0.0979,-0.242535 0.0979,-0.63941 0,-0.881945 z m 18.70676,-0.881944 c -0.0887,-0.339549 -0.16134,-0.06174 -0.16134,0.617361 0,0.679097 0.0726,0.95691 0.16134,0.617361 0.0887,-0.339549 0.0887,-0.895173 0,-1.234722 z m 3.88185,0.0067 c -0.0894,-0.343242 -0.16851,-0.147825 -0.1757,0.434259 -0.007,0.582083 0.066,0.862915 0.16263,0.624074 0.0966,-0.238841 0.10251,-0.715091 0.0131,-1.058333 z m -53.37931,-3.111831 c 0.12047,-0.313946 0.0613,-0.45555 -0.13865,-0.331958 -0.1918,0.118542 -0.34873,0.364912 -0.34873,0.547489 0,0.507447 0.25286,0.395627 0.48738,-0.215531 z"
         id="path160"
         inkscape:connector-curvature="0" />
    </g>
  </g>
</svg>
